<?xml version="1.0" encoding="UTF-8"?>
<svg width="19px" height="13px" viewBox="0 0 19 13" version="1.1" xmlns="http://www.w3.org/2000/svg" xmlns:xlink="http://www.w3.org/1999/xlink">
    <title>Path</title>
    <g id="Page-1" stroke="none" stroke-width="1" fill="none" fill-rule="evenodd">
        <g id="left-arrow" transform="translate(0.514035, 0.114035)" fill="#5791B2">
            <path d="M9.10441946,15.4859649 C9.33997327,15.4675323 9.61847628,15.3832731 9.76951508,15.2647843 L15.0902798,11.2203399 C15.5627638,10.8253662 15.6043367,10.2118577 15.2565537,9.79844807 C14.9087708,9.38503844 14.1951676,9.31001399 13.7600709,9.64046196 L10.1685547,12.3683723 L10.1685547,-1.70292397 C10.1685547,-2.26112471 9.6918851,-2.71403508 9.10440173,-2.71403508 C8.51691835,-2.71403508 8.04024877,-2.26112471 8.04024877,-1.70292397 L8.04024877,12.3683723 L4.44873255,9.64046196 C4.01363588,9.31000725 3.31668664,9.39689877 2.95224973,9.79844807 C2.55595917,10.2342369 2.68344114,10.8898751 3.11852363,11.2203399 L8.43928839,15.2647843 C8.65959998,15.4359351 8.82170949,15.4833326 9.10438399,15.4859649 L9.10441946,15.4859649 Z" id="Path" transform="translate(9.100000, 6.385965) rotate(90.000000) translate(-9.100000, -6.385965) "></path>
        </g>
    </g>
</svg>